<?xml version="1.0" encoding="utf-8" standalone="no"?>

<svg data-v-0dd9719b="" version="1.0" xmlns="http://www.w3.org/2000/svg" xmlns:xlink="http://www.w3.org/1999/xlink" width="100%" height="100%" viewBox="0 0 340.000000 250.000000" preserveAspectRatio="xMidYMid meet" color-interpolation-filters="sRGB" style="margin: auto;enable-background:new 0 0 1080 1080;" stroke="none" stroke-opacity='0'> 
<!-- <svg version="1.1" xmlns="http://www.w3.org/2000/svg" xmlns:xlink="http://www.w3.org/1999/xlink" x="0px" y="0px"
	 viewBox="0 0 340.000000 250.000000" style="enable-background:new 0 0 1080 1080;" xml:space="preserve" > -->
  
<rect data-v-0dd9719b="" x="0" y="0"  fill="none"  fill-opacity="1" class="background"></rect> <rect data-v-0dd9719b="" x="0" y="0"  fill="none" fill-opacity="1" class="watermarklayer"></rect> 
<g data-v-0dd9719b="" fill="#333" class="icon-text-wrapper icon-svg-group iconsvg" transform="translate(19.964996337890625,56)"><g fill="#333" class="iconsvg-imagesvg icon_container" transform="translate(0,0)"><rect fill="#333" fill-opacity="0" stroke-width="2" x="0" y="0" width="138.00000000000006" height="138.00000000000006" class="image-rect"></rect> 
<svg viewBox="0 0 60 55.51186566128509" x="0" y="0" width="138.00000000000006" height="138.00000000000006" class="image-svg-svg bn" style="overflow: visible;"><g hollow-target=""><g><svg xmlns="http://www.w3.org/2000/svg" viewBox="-0.004 0 209.27399 193.62" style="overflow: visible;" width="60" height="55.51186566128509" x="0" y="0" filtersec="colorsf4156676778"><g transform="scale(1, 1) skewX(0)"><path fill="#FDB800" opacity=".9" d="M94.629 2.183l94.632 94.633-94.632 94.632L-.004 96.816z"></path><path d="M112.46 193.62L15.64 96.81 112.46 0l96.81 96.81zM20 96.81l92.46 92.46 92.45-92.46-92.45-92.46z" fill="#000000"></path></g></svg></g> 
<g filter="url(#colors4377042293)"><svg xmlns="http://www.w3.org/2000/svg" data-name="Layer 1" viewBox="0 0 48 48" x="10" y="9.251977830642545" width="40" height="37.00791" class="image-svg-icon"><title>Oil and Petroleum_expand</title><path d="M12.644,11.05a.75.75,0,0,0,.75-.75V3.84a16.387,16.387,0,0,0,3.821.79V10.3a.75.75,0,0,0,1.5,0V8.679H20.35a.75.75,0,0,0,0-1.5H18.715V4.772c.97.075,2.076.131,3.332.163v5.891a.75.75,0,1,0,1.5,0V4.961c.361,0,.706.01,1.09.01,6.38,0,9.627-.516,11.243-1.131V18.5a.75.75,0,0,0,1.5,0V2.485a.813.813,0,0,0-.055-.271c0-.011-.007-.021-.012-.032C36.936,1.253,34.59,0,24.637,0S12.337,1.253,11.96,2.182c0,.011-.007.021-.012.032a.81.81,0,0,0-.054.271V10.3A.75.75,0,0,0,12.644,11.05ZM24.637,1.5c5.741,0,9.33.545,10.725.985-1.394.441-4.984.986-10.725.986s-9.331-.545-10.725-.986C15.306,2.045,18.9,1.5,24.637,1.5Z"></path><path d="M14,35.914h-.16c-7.451,0-11.567-.835-12.338-1.335V16.3A13.662,13.662,0,0,0,4.3,17V33.377a.75.75,0,0,0,1.5,0V30.734H7.668a.75.75,0,0,0,0-1.5H5.8V26.092H7.668a.75.75,0,0,0,0-1.5H5.8V21.448H7.668a.75.75,0,0,0,0-1.5H5.8V17.2c1.059.118,2.307.211,3.772.273V33.377a.75.75,0,0,0,1.5,0V17.517c.858.022,1.774.034,2.766.034,7.091,0,10.628-.575,12.339-1.249v2.2a.75.75,0,0,0,1.5,0v-3.6a.731.731,0,0,0-.086-.332c-.869-2.075-9.8-2.312-13.753-2.312S.955,12.5.086,14.575A.731.731,0,0,0,0,14.907V34.771c0,.987,1.8,2.643,13.838,2.643H14a.75.75,0,0,0,0-1.5Zm-.16-22.151c6.564,0,10.54.648,11.921,1.144-1.381.5-5.357,1.144-11.921,1.144S3.3,15.4,1.918,14.907C3.3,14.411,7.274,13.763,13.838,13.763Z"></path><path d="M31.9,20.4c-3.776,0-16.1.214-16.1,2.971V45.029C15.8,47.786,28.125,48,31.9,48S48,47.786,48,45.029V23.37C48,20.613,35.678,20.4,31.9,20.4Zm0,1.5c7.639,0,12.919.808,14.337,1.471-1.418.663-6.7,1.471-14.337,1.471s-12.918-.808-14.336-1.471C18.983,22.707,24.263,21.9,31.9,21.9Zm0,24.6c-8.239,0-13.734-.939-14.6-1.624V24.816c3.28,1.343,11.056,1.514,14.263,1.524v18.2a.75.75,0,1,0,1.5,0V41.8H36.06a.75.75,0,0,0,0-1.5H33.066V36.356H36.06a.75.75,0,0,0,0-1.5H33.066V30.912H36.06a.75.75,0,0,0,0-1.5H33.066V26.334c1.257-.013,2.921-.052,4.683-.151V44.537a.75.75,0,0,0,1.5,0V26.085A27.331,27.331,0,0,0,46.5,24.816v20.06C45.637,45.561,40.142,46.5,31.9,46.5Z"></path></svg></g></g></svg> 
<defs><filter id="colors4377042293"><feColorMatrix type="matrix" values="0 0 0 0 0  0 0 0 0 0  0 0 0 0 0  0 0 0 1 0" class="icon-fecolormatrix"></feColorMatrix></filter> <filter id="colorsf4156676778"><feColorMatrix type="matrix" values="0 0 0 0 0.99609375  0 0 0 0 0.99609375  0 0 0 0 0.99609375  0 0 0 1 0" class="icon-fecolormatrix"></feColorMatrix></filter> <filter id="colorsb7883246930"><feColorMatrix type="matrix" values="0 0 0 0 0  0 0 0 0 0  0 0 0 0 0  0 0 0 1 0" class="icon-fecolormatrix"></feColorMatrix></filter></defs></g> <g transform="translate(135,42.01499938964844)"><g data-gra="path-name" fill-rule="" class="tp-name iconsvg-namesvg"><g transform="scale(1)"><g><path fill="#FDB800" d="M52.89-4.63L48.26 0 46.34 0 52.89-6.55 52.89-4.63ZM52.89-2L50.88 0 48.96 0 52.89-3.93 52.89-2ZM52.89-7.25L45.64 0 43.71 0 52.89-9.17 52.89-7.25ZM41.09 0L51.89-10.79 52.89-10.79 52.89-9.87 43.02 0 41.09 0ZM52.89-1.31L52.89 0 51.58 0 52.89-1.31ZM35.54-10.79L31.3-6.48 31.3-8.4 33.61-10.79 35.54-10.79ZM34.69-53.97L47.65-10.79 48.65-10.79 37.85 0 35.93 0 46.72-10.79 46.03-10.79 35.23 0 33.31 0 44.1-10.79 43.41-10.79 32.61 0 31.3 0 31.3-0.62 41.48-10.79 40.78-10.79 31.3-1.31 31.3-3.24 38.86-10.79 38.16-10.79 31.3-3.93 31.3-5.86 36.24-10.79 36.39-10.79 34.62-16.81 34-16.19 32.07-16.19 34.15-18.27 34-18.81 31.38-16.19 29.45-16.19 33.54-20.28 33.38-20.82 28.76-16.19 26.83-16.19 32.92-22.28 32.77-22.82 26.14-16.19 24.21-16.19 32.38-24.29 32.23-24.83 23.59-16.19 21.66-16.19 31.76-26.29 31.61-26.83 20.97-16.19 19.04-16.19 29.84-26.98 31.53-26.98 26.68-43.17 26.21-43.17 21.05-26.06 21.97-26.98 23.9-26.98 20.2-23.28 19.97-22.28 24.59-26.98 26.52-26.98 19.12-19.58 18.81-18.58 27.22-26.98 29.14-26.98 18.35-16.19 18.12-16.19 16.5-10.79 17.35-10.79 16.81-10.33 17.19-9.95 17.81-10.56 17.58-10.79 19.89-10.79 19.43-10.33 19.81-9.95 20.43-10.56 20.2-10.79 21.59-10.79 21.59-9.41 21.36-9.64 20.74-9.02 21.12-8.63 21.59-9.17 21.59-6.78 21.36-7.02 20.74-6.4 21.12-6.09 21.59-6.55 21.59-4.16 21.36-4.39 20.74-3.78 21.12-3.47 21.59-3.93 21.59-1.62 21.36-1.77 20.74-1.16 21.12-0.85 21.59-1.31 21.59 0 20.28 0 20.43-0.15 20.05-0.46 19.58 0 17.66 0 17.81-0.15 17.42-0.46 16.96 0 15.03 0 15.19-0.15 14.88-0.46 14.34 0 12.41 0 12.57-0.15 12.26-0.46 11.72 0 9.79 0 9.95-0.15 9.64-0.46 9.1 0 7.17 0 7.32-0.15 7.02-0.46 6.55 0 4.63 0 4.78-0.15 4.39-0.46 3.93 0 2 0 2.16-0.15 1.77-0.46 1.31 0 0 0 0-1.08 0.23-0.85 0.85-1.46 0.46-1.77 0-1.31 0-3.7 0.23-3.47 0.85-4.09 0.46-4.39 0-3.93 0-6.32 0.23-6.09 0.85-6.71 0.46-7.02 0-6.48 0-8.94 0.23-8.63 0.85-9.25 0.46-9.64 0-9.1 0-10.79 1.7-10.79 1.16-10.33 1.54-9.95 2.16-10.56 1.93-10.79 4.24-10.79 3.78-10.33 4.16-9.95 4.78-10.56 4.55-10.79 5.24-10.79 18.2-53.97 34.69-53.97ZM1.16-2.47L1.54-2.16 2.16-2.78 1.77-3.08 1.16-2.47ZM1.16-5.09L1.54-4.78 2.16-5.4 1.77-5.71 1.16-5.09ZM1.16-7.71L1.54-7.4 2.16-7.94 1.77-8.33 1.16-7.71ZM2.47-1.16L2.85-0.85 3.47-1.46 3.08-1.77 2.47-1.16ZM2.47-3.78L2.85-3.47 3.47-4.09 3.08-4.39 2.47-3.78ZM2.47-6.4L2.85-6.09 3.47-6.71 3.08-7.02 2.47-6.4ZM2.47-9.02L2.85-8.63 3.47-9.25 3.08-9.64 2.47-9.02ZM3.78-2.47L4.16-2.16 4.78-2.78 4.39-3.08 3.78-2.47ZM3.78-5.09L4.16-4.78 4.78-5.4 4.39-5.71 3.78-5.09ZM3.78-7.71L4.16-7.4 4.78-7.94 4.39-8.33 3.78-7.71ZM5.09-1.16L5.47-0.85 6.09-1.46 5.71-1.77 5.09-1.16ZM5.09-3.78L5.47-3.47 6.09-4.09 5.71-4.39 5.09-3.78ZM5.09-6.4L5.47-6.09 6.09-6.71 5.71-7.02 5.09-6.4ZM5.09-9.02L5.47-8.63 6.09-9.25 5.71-9.64 5.09-9.02ZM6.4-2.47L6.78-2.16 7.32-2.78 7.02-3.08 6.4-2.47ZM6.4-5.09L6.78-4.78 7.32-5.4 7.02-5.71 6.4-5.09ZM6.4-7.71L6.78-7.4 7.32-7.94 7.02-8.33 6.4-7.71ZM6.4-10.33L6.78-9.95 7.32-10.56 7.17-10.79 6.86-10.79 6.4-10.33ZM7.71-1.16L8.02-0.85 8.63-1.46 8.33-1.77 7.71-1.16ZM7.71-3.78L8.02-3.47 8.63-4.09 8.33-4.39 7.71-3.78ZM7.71-6.4L8.02-6.09 8.63-6.71 8.33-7.02 7.71-6.4ZM7.71-9.02L8.02-8.63 8.63-9.25 8.33-9.64 7.71-9.02ZM9.02-2.47L9.33-2.16 9.95-2.78 9.64-3.08 9.02-2.47ZM9.02-5.09L9.33-4.78 9.95-5.4 9.64-5.71 9.02-5.09ZM9.02-7.71L9.33-7.4 9.95-7.94 9.64-8.33 9.02-7.71ZM9.02-10.33L9.33-9.95 9.95-10.56 9.79-10.79 9.48-10.79 9.02-10.33ZM20.43-7.94L20.05-8.33 19.43-7.71 19.81-7.4 20.43-7.94ZM20.43-5.4L20.05-5.71 19.43-5.09 19.81-4.78 20.43-5.4ZM20.43-2.78L20.05-3.08 19.43-2.47 19.81-2.16 20.43-2.78ZM19.12-9.25L18.73-9.64 18.12-9.02 18.5-8.63 19.12-9.25ZM19.12-6.71L18.73-7.02 18.12-6.4 18.5-6.09 19.12-6.71ZM19.12-4.09L18.73-4.39 18.12-3.78 18.5-3.47 19.12-4.09ZM19.12-1.46L18.73-1.77 18.12-1.16 18.5-0.85 19.12-1.46ZM10.33-1.16L10.64-0.85 11.26-1.46 10.95-1.77 10.33-1.16ZM10.33-3.78L10.64-3.47 11.26-4.09 10.95-4.39 10.33-3.78ZM10.33-6.4L10.64-6.09 11.26-6.71 10.95-7.02 10.33-6.4ZM10.33-9.02L10.64-8.63 11.26-9.25 10.95-9.64 10.33-9.02ZM11.64-2.47L11.95-2.16 12.57-2.78 12.26-3.08 11.64-2.47ZM11.64-5.09L11.95-4.78 12.57-5.4 12.26-5.71 11.64-5.09ZM11.64-7.71L11.95-7.4 12.57-7.94 12.26-8.33 11.64-7.71ZM11.64-10.33L11.95-9.95 12.57-10.56 12.41-10.79 12.1-10.79 11.64-10.33ZM12.95-1.16L13.26-0.85 13.88-1.46 13.57-1.77 12.95-1.16ZM12.95-3.78L13.26-3.47 13.88-4.09 13.57-4.39 12.95-3.78ZM12.95-6.4L13.26-6.09 13.88-6.71 13.57-7.02 12.95-6.4ZM12.95-9.02L13.26-8.63 13.88-9.25 13.57-9.64 12.95-9.02ZM14.26-2.47L14.57-2.16 15.19-2.78 14.88-3.08 14.26-2.47ZM14.26-5.09L14.57-4.78 15.19-5.4 14.88-5.71 14.26-5.09ZM14.26-7.71L14.57-7.4 15.19-7.94 14.88-8.33 14.26-7.71ZM14.26-10.33L14.57-9.95 15.19-10.56 14.96-10.79 14.73-10.79 14.26-10.33ZM15.57-1.16L15.88-0.85 16.5-1.46 16.11-1.77 15.57-1.16ZM15.57-3.78L15.88-3.47 16.5-4.09 16.11-4.39 15.57-3.78ZM15.57-6.4L15.88-6.09 16.5-6.71 16.11-7.02 15.57-6.4ZM17.81-7.94L17.42-8.33 16.81-7.71 17.19-7.4 17.81-7.94ZM17.81-5.4L17.42-5.71 16.81-5.09 17.19-4.78 17.81-5.4ZM17.81-2.78L17.42-3.08 16.81-2.47 17.19-2.16 17.81-2.78ZM15.88-8.63L16.5-9.25 16.11-9.64 15.57-9.02 15.88-8.63ZM33-10.79L31.3-9.1 31.3-10.79 33-10.79ZM38.55 0L49.34-10.79 51.19-10.79 40.4 0 38.55 0ZM57.67-2.7L57.67-4.09 61.76 0 60.37 0 57.67-2.7ZM57.67-5.32L57.67-6.71 64.38 0 62.99 0 57.67-5.32ZM57.67-0.08L57.67-1.46 59.13 0 57.75 0 57.67-0.08ZM59.98-10.79L61.37-10.79 72.16 0 70.78 0 59.98-10.79ZM57.67-7.94L57.67-9.33 67 0 65.61 0 57.67-7.94ZM57.67-10.79L58.75-10.79 69.54 0 68.15 0 57.67-10.49 57.67-10.79ZM78.33-32.38L79.72-32.38 84.65-27.45 84.65-26.06 78.33-32.38ZM75.71-32.38L77.1-32.38 84.65-24.83 84.65-23.44 75.71-32.38ZM84.65-32.38L84.65-31.3 83.57-32.38 84.65-32.38ZM80.95-32.38L82.34-32.38 84.65-30.07 84.65-28.68 80.95-32.38ZM57.67-53.97L59.21-53.97 57.67-52.43 57.67-53.97ZM59.83-53.97L61.76-53.97 57.67-49.8 57.67-51.73 59.83-53.97ZM61.45-43.17L59.52-43.17 70.31-53.97 72.24-53.97 61.45-43.17ZM62.45-53.97L64.38-53.97 57.67-47.26 57.67-49.19 62.45-53.97ZM65.07-53.97L67-53.97 57.67-44.64 57.67-46.57 65.07-53.97ZM84.65-11.64L84.65-13.57 87.27-16.19 89.2-16.19 84.65-11.64ZM84.65-14.19L84.65-16.11 84.73-16.19 86.66-16.19 84.65-14.19ZM69.62-53.97L58.83-43.17 57.67-43.17 57.67-43.95 67.69-53.97 69.62-53.97ZM95.45-53.97L95.45-37.78 84.65-37.78 84.65-43.17 82.96-43.17 84.65-44.87 84.65-45.49 82.26-43.17 80.34-43.17 84.65-47.41 84.65-48.11 79.72-43.17 77.79-43.17 84.65-50.04 84.65-50.73 77.1-43.17 75.17-43.17 84.65-52.66 84.65-53.35 74.48-43.17 73.86-43.17 73.86-32.38 74.48-32.38 84.65-22.2 84.65-21.59 83.88-21.59 73.09-32.38 71.93-32.38 82.73-21.59 81.34-21.59 70.54-32.38 69.31-32.38 80.1-21.59 78.72-21.59 67.92-32.38 66.69-32.38 77.48-21.59 76.1-21.59 65.3-32.38 64.07-32.38 74.86-21.59 73.86-21.59 73.86-10.79 74.4-10.79 84.73-0.54 85.27-1.16 84.96-1.46 84.65-1.16 84.65-1.77 75.63-10.79 77.02-10.79 84.73-3.16 85.27-3.78 84.96-4.09 84.65-3.78 84.65-4.39 78.25-10.79 79.64-10.79 84.73-5.78 85.27-6.4 84.96-6.71 84.65-6.4 84.65-7.02 80.88-10.79 82.26-10.79 84.73-8.33 85.27-8.94 84.96-9.33 84.65-9.02 84.65-9.64 83.5-10.79 84.65-10.79 84.65-10.95 89.9-16.19 91.82-16.19 86.43-10.79 87.12-10.79 92.52-16.19 94.44-16.19 89.05-10.79 89.74-10.79 95.14-16.19 95.45-16.19 95.45-14.57 91.67-10.79 92.36-10.79 95.45-13.88 95.45-11.95 94.29-10.79 94.98-10.79 95.45-11.26 95.45-9.25 95.37-9.33 94.75-8.71 95.14-8.33 95.45-8.63 95.45-6.63 95.37-6.71 94.75-6.09 95.14-5.78 95.45-6.09 95.45-4.09 95.37-4.09 94.75-3.47 95.14-3.16 95.45-3.47 95.45-1.46 95.37-1.46 94.75-0.85 95.14-0.54 95.45-0.85 95.45 0 94.29 0 94.06-0.15 93.9 0 91.67 0 91.51-0.15 91.28 0 89.05 0 88.89-0.15 88.66 0 86.43 0 86.27-0.15 86.12 0 83.8 0 73.01-10.79 71.85-10.79 82.65 0 81.26 0 70.47-10.79 69.23-10.79 80.03 0 78.64 0 67.85-10.79 66.61-10.79 77.41 0 76.02 0 65.22-10.79 63.99-10.79 74.78 0 73.4 0 62.6-10.79 63.07-10.79 63.07-22.98 64.45-21.59 65.69-21.59 63.07-24.21 63.07-25.6 67.07-21.59 68.23-21.59 63.07-26.75 63.07-28.14 69.62-21.59 70.85-21.59 63.07-29.37 63.07-30.76 72.24-21.59 73.47-21.59 63.07-32 63.07-43.17 62.14-43.17 72.93-53.97 74.86-53.97 64.07-43.17 64.68-43.17 75.48-53.97 77.41-53.97 66.61-43.17 67.31-43.17 78.1-53.97 80.03-53.97 69.23-43.17 69.93-43.17 80.72-53.97 82.65-53.97 71.85-43.17 72.55-43.17 83.34-53.97 95.45-53.97ZM94.06-10.64L93.52-10.02 93.83-9.64 94.44-10.25 94.06-10.64ZM94.06-8.02L93.52-7.4 93.83-7.02 94.44-7.63 94.06-8.02ZM94.06-5.4L93.52-4.78 93.83-4.47 94.44-5.09 94.06-5.4ZM94.06-2.78L93.52-2.16 93.83-1.85 94.44-2.47 94.06-2.78ZM92.83-9.33L92.21-8.71 92.52-8.33 93.13-8.94 92.83-9.33ZM92.83-6.71L92.21-6.09 92.52-5.78 93.13-6.4 92.83-6.71ZM92.83-4.09L92.21-3.47 92.52-3.16 93.13-3.78 92.83-4.09ZM92.83-1.46L92.21-0.85 92.52-0.54 93.13-1.16 92.83-1.46ZM91.51-10.64L90.9-10.02 91.21-9.64 91.82-10.25 91.51-10.64ZM91.51-8.02L90.9-7.4 91.21-7.02 91.82-7.63 91.51-8.02ZM91.51-5.4L90.9-4.78 91.21-4.47 91.82-5.09 91.51-5.4ZM91.51-2.78L90.9-2.16 91.21-1.85 91.82-2.47 91.51-2.78ZM90.2-9.33L89.59-8.71 89.9-8.33 90.51-8.94 90.2-9.33ZM90.2-6.71L89.59-6.09 89.9-5.78 90.51-6.4 90.2-6.71ZM90.2-4.09L89.59-3.47 89.9-3.16 90.51-3.78 90.2-4.09ZM90.2-1.46L89.59-0.85 89.9-0.54 90.51-1.16 90.2-1.46ZM88.89-10.64L88.28-10.02 88.59-9.64 89.2-10.25 88.89-10.64ZM88.89-8.02L88.28-7.4 88.59-7.02 89.2-7.63 88.89-8.02ZM88.89-5.4L88.28-4.78 88.59-4.47 89.2-5.09 88.89-5.4ZM88.89-2.78L88.28-2.16 88.59-1.85 89.2-2.47 88.89-2.78ZM87.58-9.33L86.97-8.71 87.27-8.33 87.89-8.94 87.58-9.33ZM87.58-6.71L86.97-6.09 87.27-5.78 87.89-6.4 87.58-6.71ZM87.58-4.09L86.97-3.47 87.27-3.16 87.89-3.78 87.58-4.09ZM87.58-1.46L86.97-0.85 87.27-0.54 87.89-1.16 87.58-1.46ZM86.27-10.64L85.66-10.02 85.96-9.64 86.58-10.25 86.27-10.64ZM86.27-8.02L85.66-7.4 85.96-7.02 86.58-7.63 86.27-8.02ZM86.27-5.4L85.66-4.78 85.96-4.47 86.58-5.09 86.27-5.4ZM86.27-2.78L85.66-2.16 85.96-1.85 86.58-2.47 86.27-2.78ZM165.07-53.97L165.07-43.17 158.9-43.17 159.59-42.48 159.36-41.32 157.51-43.17 156.35-43.17 159.13-40.4 158.9-39.24 154.97-43.17 153.73-43.17 158.67-38.24 158.36-37.08 152.34-43.17 151.11-43.17 158.13-36.08 157.9-35 149.72-43.17 143.48-43.17 143.48-53.97 165.07-53.97ZM156.97-30.76L147.95-39.78 148.18-40.86 157.2-31.84 156.97-30.76ZM153.04-13.72L144.02-22.74 144.33-23.9 153.35-14.88 153.04-13.72ZM157.43-32.84L148.41-41.86 148.64-43.02 157.66-34 157.43-32.84ZM153.58-15.88L144.56-24.9 144.79-25.98 153.81-16.96 153.58-15.88ZM154.97-22.2L145.95-31.22 146.25-32.38 155.27-23.36 154.97-22.2ZM154.5-20.12L145.48-29.14 145.79-30.22 154.73-21.28 154.5-20.12ZM154.04-17.96L145.02-26.98 145.25-28.14 154.27-19.12 154.04-17.96ZM155.51-24.36L146.49-33.38 146.72-34.54 155.74-25.52 155.51-24.36ZM152.58-11.64L143.56-20.66 143.79-21.74 152.81-12.72 152.58-11.64ZM155.97-26.52L146.95-35.46 147.18-36.62 156.2-27.6 155.97-26.52ZM156.43-28.6L147.41-37.62 147.72-38.78 156.74-29.76 156.43-28.6ZM106.55-39.01L120.89-24.67 121.27-22.9 106.93-37.24 106.55-39.01ZM152.11-9.48L143.09-18.5 143.32-19.66 152.34-10.64 152.11-9.48ZM105.78-42.4L120.12-28.06 120.5-26.29 106.16-40.63 105.78-42.4ZM108.09-32.3L122.43-17.96 122.82-16.11 108.48-30.45 108.09-32.3ZM107.32-35.7L121.66-21.36 122.05-19.51 107.71-33.85 107.32-35.7ZM151.57-7.4L142.55-16.42 142.86-17.5 151.88-8.48 151.57-7.4ZM132.76-10.87L141.01-19.12 141.55-17.73 133.38-9.56 132.76-10.87ZM140.24-20.97L140.78-19.58 132.92-11.72 127.9 0 115.49 0 115.41-0.08 115.03-1.85 116.42-0.46 116.73-1.39 114.64-3.47 114.26-5.24 117.19-2.31 117.57-3.16 113.87-6.86 113.49-8.63 117.96-4.16 118.34-5.01 113.1-10.18 112.72-12.03 118.73-6.01 119.12-6.86 112.33-13.57 111.95-15.42 119.5-7.79 119.89-8.63 111.56-16.96 111.17-18.73 120.27-9.64 120.66-10.49 110.79-20.35 110.4-22.13 121.12-11.49 121.43-12.34 110.02-23.75 109.63-25.52 121.89-13.26 122.2-14.11 109.25-27.14 108.86-28.91 122.66-15.11 132.68-38.55 138.54-24.83 138.31-24.21 138.62-24.59 139.24-23.21 136.85-20.82 136.31-19.66 139.47-22.74 140.01-21.43 134.92-16.27 134.38-15.11 140.24-20.97ZM100.3-52.5L100.3-53.97 101.77-53.97 100.3-52.5ZM133.53-9.1L141.78-17.27 142.4-15.96 134.15-7.71 133.53-9.1ZM117.73-43.17L121.89-47.34 121.89-45.41 119.66-43.17 117.73-43.17ZM120.35-43.17L121.89-44.72 121.89-43.17 120.35-43.17ZM142.4-15.34L142.55-15.42 142.78-14.96 151.34-6.4 151.11-5.24 143.79-12.57 143.94-12.26 143.4-11.72 143.71-11.41 144.17-11.8 144.71-10.49 144.71-10.41 150.88-4.24 150.65-3.08 145.79-8.02 146.25-6.78 146.02-6.55 146.33-6.17 146.49-6.32 146.72-5.86 150.42-2.16 150.19-1 147.72-3.39 147.87-3.16 147.33-2.62 147.64-2.24 148.03-2.7 148.64-1.31 148.64-1.31 149.95 0 149.95 0 148.03 0 148.26-0.31 147.95-0.62 147.33 0 147.33 0 145.41 0 145.64-0.31 145.33-0.62 144.71 0 144.71 0 142.78 0 143.02-0.31 142.71-0.62 142.09 0 142.09 0 140.16 0 140.47-0.31 140.09-0.62 139.47 0 139.47 0 137.54 0 139.24-1.7 139.47-2.54 137.31-0.39 136.69-1.77 140.47-5.47 140.16-5.78 140.24-5.94 136.46-2.24 135.92-3.55 140.78-8.4 140.93-9.02 141.17-8.79 141.71-9.41 141.4-9.71 135.69-4.09 135.15-5.4 141.71-12.03 141.63-12.1 141.78-12.72 134.92-5.86 134.38-7.25 142.32-15.19 142.4-15.42 142.4-15.34ZM139.47-2.62L139.85-2.24 140.47-2.85 140.09-3.24 139.47-2.62ZM140.78-1.31L141.17-1 141.71-1.54 141.4-1.93 140.78-1.31ZM140.78-3.93L141.17-3.55 141.71-4.16 141.4-4.55 140.78-3.93ZM140.78-6.55L141.17-6.17 141.71-6.78 141.4-7.17 140.78-6.55ZM146.95-4.16L146.64-4.55 146.02-3.93 146.33-3.55 146.95-4.16ZM146.95-1.54L146.64-1.93 146.02-1.31 146.33-1 146.95-1.54ZM145.64-8.1L145.33-8.48 144.71-7.86 145.02-7.48 145.64-8.1ZM145.64-5.47L145.33-5.86 144.71-5.24 145.02-4.86 145.64-5.47ZM145.64-2.85L145.33-3.24 144.71-2.62 145.02-2.24 145.64-2.85ZM142.09-2.62L142.4-2.24 143.02-2.85 142.71-3.24 142.09-2.62ZM142.09-5.24L142.4-4.86 143.02-5.47 142.71-5.86 142.09-5.24ZM142.09-7.86L142.4-7.48 143.02-8.1 142.71-8.48 142.09-7.86ZM144.33-9.41L144.02-9.71 143.4-9.1 143.71-8.79 144.33-9.41ZM144.33-6.78L144.02-7.17 143.4-6.55 143.71-6.17 144.33-6.78ZM144.33-4.16L144.02-4.55 143.4-3.93 143.71-3.55 144.33-4.16ZM144.33-1.54L144.02-1.93 143.4-1.31 143.71-1 144.33-1.54ZM142.09-10.41L142.4-10.1 143.02-10.72 142.71-11.02 142.09-10.41ZM142.09-13.03L142.4-12.72 143.02-13.34 142.71-13.65 142.09-13.03ZM119.73-29.68L106.24-43.17 104.7-43.17 105.47-43.95 105.39-44.02 105.32-44.49 104-43.17 102.08-43.17 105.47-46.57 105.08-46.88 101.38-43.17 100.3-43.17 100.3-44.02 104.47-48.19 104.31-48.73 100.3-44.72 100.3-46.64 104.16-50.5 103.85-50.81 103.85-50.88 100.3-47.34 100.3-49.27 103.46-52.43 103.46-52.58 103.54-52.5 104.16-53.12 103.85-53.43 100.3-49.88 100.3-51.81 102.46-53.97 104.7-53.97 104.85-53.81 105.01-53.97 107.24-53.97 107.47-53.81 107.63-53.97 109.86-53.97 110.1-53.81 110.25-53.97 112.49-53.97 112.64-53.81 112.87-53.97 114.8-53.97 114.34-53.51 114.34-53.35 114.26-53.43 113.64-52.81 113.95-52.5 115.49-53.97 117.42-53.97 114.8-51.35 114.95-50.81 118.11-53.97 120.04-53.97 114.95-48.88 115.26-48.57 120.66-53.97 121.89-53.97 121.89-53.27 115.8-47.11 115.88-46.57 115.57-46.88 114.95-46.26 115.26-45.95 121.89-52.58 121.89-50.65 116.26-45.02 116.26-44.95 116.42-44.41 121.89-49.96 121.89-48.03 117.03-43.17 115.49-43.17 117.03-41.63 117.42-39.78 114.1-43.17 112.87-43.17 117.8-38.24 118.19-36.39 111.48-43.17 110.25-43.17 118.58-34.85 118.96-33.07 108.86-43.17 107.63-43.17 119.35-31.46 119.73-29.68ZM115.88-43.95L115.57-44.33 114.95-43.71 115.26-43.33 115.88-43.95ZM114.57-50.5L114.26-50.81 113.64-50.19 113.95-49.88 114.57-50.5ZM114.57-47.88L114.26-48.19 113.64-47.57 113.95-47.26 114.57-47.88ZM114.57-45.26L114.26-45.56 113.64-45.02 113.95-44.64 114.57-45.26ZM113.26-51.81L112.95-52.12 112.33-51.5 112.64-51.19 113.26-51.81ZM113.26-49.19L112.95-49.5 112.33-48.88 112.64-48.57 113.26-49.19ZM113.26-46.57L112.95-46.88 112.33-46.26 112.64-45.95 113.26-46.57ZM113.26-43.95L112.95-44.33 112.33-43.71 112.64-43.33 113.26-43.95ZM111.95-53.12L111.64-53.43 111.02-52.81 111.41-52.5 111.95-53.12ZM111.95-50.5L111.64-50.81 111.02-50.19 111.41-49.88 111.95-50.5ZM111.95-47.88L111.64-48.19 111.02-47.57 111.41-47.26 111.95-47.88ZM111.95-45.26L111.64-45.56 111.02-45.02 111.41-44.64 111.95-45.26ZM110.71-51.81L110.33-52.12 109.71-51.5 110.1-51.19 110.71-51.81ZM110.71-49.19L110.33-49.5 109.71-48.88 110.1-48.57 110.71-49.19ZM110.71-46.57L110.33-46.88 109.71-46.26 110.1-45.95 110.71-46.57ZM110.71-43.95L110.33-44.33 109.71-43.71 110.1-43.33 110.71-43.95ZM109.4-53.12L109.02-53.43 108.4-52.81 108.78-52.5 109.4-53.12ZM109.4-50.5L109.02-50.81 108.4-50.19 108.78-49.88 109.4-50.5ZM109.4-47.88L109.02-48.19 108.4-47.57 108.78-47.26 109.4-47.88ZM109.4-45.26L109.02-45.56 108.4-45.02 108.78-44.64 109.4-45.26ZM108.09-51.81L107.71-52.12 107.09-51.5 107.47-51.19 108.09-51.81ZM108.09-49.19L107.71-49.5 107.09-48.88 107.47-48.57 108.09-49.19ZM108.09-46.57L107.71-46.88 107.09-46.26 107.47-45.95 108.09-46.57ZM108.09-43.95L107.71-44.33 107.09-43.71 107.47-43.33 108.09-43.95ZM106.78-53.12L106.39-53.43 105.78-52.81 106.16-52.5 106.78-53.12ZM106.78-50.5L106.39-50.81 105.78-50.19 106.16-49.88 106.78-50.5ZM106.78-47.88L106.39-48.19 105.78-47.57 106.16-47.26 106.78-47.88ZM106.78-45.26L106.39-45.56 105.78-45.02 106.16-44.64 106.78-45.26ZM105.47-51.81L105.08-52.12 104.54-51.5 104.85-51.19 105.47-51.81ZM104.54-48.88L104.85-48.57 105.47-49.19 105.08-49.5 104.54-48.88Z" transform="translate(0, 53.970001220703125)"></path></g> <!----> <!----> <!----> <!----> <!----> <!----> <!----></g></g> <!----></g></g><defs v-gra="od"></defs></svg>